<svg id="visual" viewBox="0 0 900 600" width="100%" height="600" xmlns="http://www.w3.org/2000/svg" xmlns:xlink="http://www.w3.org/1999/xlink" version="1.1"><rect x="0" y="0" width="900" height="600" fill="transparent"></rect><path d="M0 379L21.5 394.2C43 409.3 86 439.7 128.8 444.8C171.7 450 214.3 430 257.2 426.3C300 422.7 343 435.3 385.8 450.5C428.7 465.7 471.3 483.3 514.2 472.2C557 461 600 421 642.8 412.3C685.7 403.7 728.3 426.3 771.2 426.5C814 426.7 857 404.3 878.5 393.2L900 382L900 601L878.5 601C857 601 814 601 771.2 601C728.3 601 685.7 601 642.8 601C600 601 557 601 514.2 601C471.3 601 428.7 601 385.8 601C343 601 300 601 257.2 601C214.3 601 171.7 601 128.8 601C86 601 43 601 21.5 601L0 601Z" fill="#5f7adb" stroke-linecap="round" stroke-linejoin="miter"></path></svg>